<?xml version="1.0" encoding="UTF-8"?>
<svg version="1.1" xmlns="http://www.w3.org/2000/svg" width="512" height="512">
<path d="M0 0 C5.96932934 0.96266512 10.88964186 3.68793101 16.25 6.375 C17.77753906 7.1175 17.77753906 7.1175 19.3359375 7.875 C20.78613281 8.59816406 20.78613281 8.59816406 22.265625 9.3359375 C23.15024414 9.77470215 24.03486328 10.2134668 24.94628906 10.66552734 C27 12 27 12 28 15 C27.44262695 16.95092773 27.44262695 16.95092773 26.48828125 19.18359375 C26.14418213 20.01834229 25.80008301 20.85309082 25.44555664 21.71313477 C24.8846936 23.06169556 24.8846936 23.06169556 24.3125 24.4375 C15.00224017 47.94079666 14.3963123 71.05374687 16 96 C22.6 96 29.2 96 36 96 C35.96519531 94.33195312 35.93039062 92.66390625 35.89453125 90.9453125 C35.38158894 56.37196996 43.99162736 27.6749126 65 0 C69.46363981 0.49771559 71.48580581 1.97723106 74.6875 5.0625 C79.58722182 9.66013371 84.70634778 13.86644603 90 18 C89.3898792 22.0543511 87.14018805 24.95311459 84.875 28.25 C81.56293943 33.26741097 78.65231503 38.32625437 76.1875 43.8125 C75.66542969 44.97394531 75.14335937 46.13539062 74.60546875 47.33203125 C69.52936631 61.00816846 68.39749527 74.36619136 68.390625 88.81640625 C68.37559887 90.65300419 68.35886267 92.48958885 68.34051514 94.32615662 C68.29732608 99.09842644 68.27695173 103.87051423 68.26177979 108.64294434 C68.24203145 113.53746088 68.20008313 118.43178571 68.16015625 123.32617188 C68.08538079 132.88405472 68.03477299 142.44189359 68 152 C69.2794751 151.98622314 70.5589502 151.97244629 71.87719727 151.95825195 C73.58609819 151.94710567 75.29500135 151.93630026 77.00390625 151.92578125 C78.2634613 151.91085632 78.2634613 151.91085632 79.54846191 151.89562988 C99.21155849 151.80514821 117.31793226 159.14507401 131.62109375 172.59765625 C146.02342468 187.14188206 153.36891017 205.3412428 153.46438217 225.71103668 C153.45297528 227.98475939 153.42226961 230.25772701 153.390625 232.53125 C153.38313813 234.14505298 153.37745682 235.75886523 153.37347412 237.37268066 C153.35840965 241.56160871 153.31930124 245.74995644 153.2746582 249.93865967 C153.22597292 254.99578361 153.20807976 260.05310472 153.18484497 265.11039734 C153.14643203 272.74066494 153.06964807 280.36966659 153 288 C142.44 288 131.88 288 121 288 C121 280.41 121 272.82 121 265 C103.51 265 86.02 265 68 265 C68.07846897 281.45148613 68.07846897 281.45148613 68.18017578 297.90283203 C68.3644278 342.17105446 59.9937162 381.42752956 29.04296875 414.74609375 C26.96510514 416.96124172 26.96510514 416.96124172 25.22663879 419.41273499 C22.82278274 422.20591935 20.43131676 423.68753622 17.33081055 425.65014648 C13.86049409 428.45680843 11.79023648 430.54256632 10.99356079 434.92922974 C10.49146391 439.81538209 10.60459468 444.69397097 10.70703125 449.59765625 C10.70510712 451.40084455 10.69833208 453.20403358 10.68693542 455.00718689 C10.67001149 459.72808572 10.71851699 464.44607939 10.78112793 469.16650391 C10.83341451 473.99314543 10.82317734 478.81962183 10.81835938 483.64648438 C10.81806075 493.09878985 10.89273458 502.54830258 11 512 C0.77 512 -9.46 512 -20 512 C-20.33 491.87 -20.66 471.74 -21 451 C-26.28 452.98 -31.56 454.96 -37 457 C-47.8 460 -47.8 460 -53 460 C-53 477.16 -53 494.32 -53 512 C-63.23 512 -73.46 512 -84 512 C-84 495.83 -84 479.66 -84 463 C-91.82910941 462.91266741 -99.64624201 462.85687414 -107.47412109 462.87792969 C-110.13090545 462.88154874 -112.78292142 462.85655671 -115.43994141 462.81835938 C-130.95550613 462.6081372 -143.12498615 462.54511007 -155.41412354 472.71765137 C-157.80538185 474.6512363 -160.39227063 476.24069922 -162.99609375 477.87109375 C-164.81085472 479.05843153 -166.62465904 480.24723279 -168.4375 481.4375 C-170.42044012 482.73457804 -172.40351399 484.03145162 -174.38671875 485.328125 C-175.3411084 485.95267578 -176.29549805 486.57722656 -177.27880859 487.22070312 C-187.73903915 494.06030122 -187.73903915 494.06030122 -190.57099915 495.81724548 C-194.15681758 498.06726741 -197.50386287 500.36647108 -200.72485352 503.11743164 C-215.27997683 514.82829702 -231.1603876 513.43756275 -248.82684326 512.82397461 C-252.80239295 512.69939498 -256.77890494 512.64603266 -260.75585938 512.5859375 C-268.50647225 512.45868699 -276.25242188 512.25496834 -284 512 C-282.77633745 508.87887386 -281.53569493 506.03381912 -279.7421875 503.19921875 C-279.06506714 502.12546997 -279.06506714 502.12546997 -278.37426758 501.0300293 C-277.87950928 500.25699463 -277.38475098 499.48395996 -276.875 498.6875 C-276.34350342 497.8519458 -275.81200684 497.0163916 -275.2644043 496.15551758 C-271.1891673 489.78221019 -267.01699184 483.47605178 -262.8125 477.1875 C-261.85428345 475.75277344 -261.85428345 475.75277344 -260.87670898 474.2890625 C-260.19294189 473.26554687 -259.5091748 472.24203125 -258.8046875 471.1875 C-258.44538651 470.64963867 -258.08608551 470.11177734 -257.71589661 469.55761719 C-255.42206592 466.12488772 -253.12474647 462.69452533 -250.82519531 459.265625 C-247.93122467 454.94794623 -245.04904274 450.62255982 -242.17269897 446.29312134 C-241.01731188 444.55816108 -239.85815625 442.82570448 -238.69522095 441.09579468 C-237.05669835 438.65737357 -235.43130805 436.21067821 -233.80859375 433.76171875 C-233.30735992 433.02215942 -232.8061261 432.2826001 -232.28970337 431.52062988 C-231.11315911 429.73049659 -230.04526555 427.86982715 -229 426 C-230.2377657 422.2867029 -231.74391789 421.37219818 -234.8125 419 C-235.68519531 418.319375 -236.55789062 417.63875 -237.45703125 416.9375 C-239.63060636 415.28144278 -241.80967016 413.63381247 -244 412 C-242.4715275 406.92121479 -239.3489772 403.66606131 -235.875 399.8125 C-234.68605966 398.46872092 -233.49855626 397.12366908 -232.3125 395.77734375 C-231.73886719 395.12749512 -231.16523438 394.47764648 -230.57421875 393.80810547 C-227.95037223 390.79442567 -225.49145775 387.65757689 -223.01953125 384.51953125 C-220.58819207 381.48623576 -218.0814118 378.52313713 -215.5625 375.5625 C-211.49019559 370.77343116 -207.47518137 365.94382723 -203.50390625 361.0703125 C-195.69334735 351.49293451 -187.84109042 341.95247043 -179.83691406 332.53613281 C-175.48819803 327.41373861 -171.23958689 322.2127305 -167 317 C-165.4173693 315.06192602 -163.83404103 313.12442145 -162.25 311.1875 C-161.55390625 310.33542969 -160.8578125 309.48335938 -160.140625 308.60546875 C-158.68031993 306.82805363 -157.17323393 305.08831086 -155.62792969 303.38427734 C-152.55451943 299.68673261 -150.73086915 295.62564328 -148.8125 291.24609375 C-148.43334946 290.40155136 -148.05419891 289.55700897 -147.66355896 288.68687439 C-146.43334458 285.94101557 -145.21665644 283.18938942 -144 280.4375 C-143.14290865 278.51798973 -142.28490906 276.59888475 -141.42602539 274.68017578 C-139.71918514 270.86341323 -138.01744536 267.04445013 -136.32080078 263.22314453 C-134.38891043 258.87224609 -132.44739057 254.52581937 -130.49609375 250.18359375 C-128.44979148 245.62908663 -126.40656588 241.07323691 -124.3671875 236.515625 C-120.66438362 228.24565451 -116.94777974 219.98190728 -113.22946167 211.71890259 C-112.0730282 209.14840189 -110.9174335 206.57752543 -109.76196289 204.0065918 C-106.10856033 195.88133673 -102.44125604 187.76295004 -98.73828125 179.66015625 C-97.76011937 177.51451467 -96.78233377 175.36870201 -95.80465698 173.22283936 C-94.89477832 171.23080155 -93.9788576 169.24161769 -93.06274414 167.25244141 C-92.52383545 166.06956543 -91.98492676 164.88668945 -91.4296875 163.66796875 C-90.95772949 162.63953857 -90.48577148 161.6111084 -89.99951172 160.55151367 C-88.81762734 157.99116305 -88.81762734 157.99116305 -89 155 C-90.48886719 154.21689453 -90.48886719 154.21689453 -92.0078125 153.41796875 C-101.82124022 148.14691603 -110.55199789 142.25479531 -119 135 C-119.55816406 134.52159668 -120.11632812 134.04319336 -120.69140625 133.55029297 C-128.97145521 126.36768669 -136.13331399 118.53175416 -143 110 C-139.06349776 105.88871098 -134.8381297 102.33854681 -130.375 98.8125 C-129.70726562 98.27947266 -129.03953125 97.74644531 -128.3515625 97.19726562 C-120.5229692 90.97353395 -120.5229692 90.97353395 -118.0703125 91.09765625 C-115.23537853 92.33325955 -113.868174 94.08025916 -111.875 96.4375 C-111.07964844 97.345 -110.28429687 98.2525 -109.46484375 99.1875 C-108.65144531 100.115625 -107.83804688 101.04375 -107 102 C-97.02554797 113.10199878 -84.71400579 122.03308883 -71 128 C-70.44570312 127.44570312 -69.89140625 126.89140625 -69.3203125 126.3203125 C-65.16015625 122.16015625 -65.16015625 122.16015625 -61 118 C-61.50789062 116.98164062 -62.01578125 115.96328125 -62.5390625 114.9140625 C-74.08369016 91.36302208 -80.2318668 66.86954339 -80.125 40.5625 C-80.12886719 39.58345703 -80.13273438 38.60441406 -80.13671875 37.59570312 C-80.13478516 36.18901367 -80.13478516 36.18901367 -80.1328125 34.75390625 C-80.13168457 33.91158447 -80.13055664 33.0692627 -80.12939453 32.20141602 C-80 30 -80 30 -79 27 C-74.58291545 27.30676679 -70.16642571 27.62140049 -65.75 27.9375 C-64.49574219 28.02451172 -63.24148438 28.11152344 -61.94921875 28.20117188 C-60.74394531 28.28818359 -59.53867187 28.37519531 -58.296875 28.46484375 C-57.18666992 28.543396 -56.07646484 28.62194824 -54.93261719 28.70288086 C-52.50800573 28.94853122 -50.33302286 29.32243059 -48 30 C-48.02320313 30.69480469 -48.04640625 31.38960937 -48.0703125 32.10546875 C-48.4611712 54.13314829 -44.8699444 74.72031095 -36.234375 94.99609375 C-35.26482805 97.3555292 -34.51334587 99.51271706 -34 102 C-32.96359375 101.71125 -31.9271875 101.4225 -30.859375 101.125 C-29.48965604 100.74973453 -28.1198603 100.37474921 -26.75 100 C-26.06808594 99.80921875 -25.38617188 99.6184375 -24.68359375 99.421875 C-21.29399088 98.50042956 -18.54221024 98 -15 98 C-15.33 97.34 -15.66 96.68 -16 96 C-20.59184742 64.31955626 -16.70275053 27.74929363 0 0 Z " fill="#F6EFEA" transform="translate(322,0)"/>
<path d="M0 0 C5.96932934 0.96266512 10.88964186 3.68793101 16.25 6.375 C17.26835937 6.87 18.28671875 7.365 19.3359375 7.875 C20.78613281 8.59816406 20.78613281 8.59816406 22.265625 9.3359375 C23.59255371 9.99408447 23.59255371 9.99408447 24.94628906 10.66552734 C27 12 27 12 28 15 C27.44262695 16.95092773 27.44262695 16.95092773 26.48828125 19.18359375 C26.14418213 20.01834229 25.80008301 20.85309082 25.44555664 21.71313477 C25.07164795 22.61217529 24.69773926 23.51121582 24.3125 24.4375 C15.00224017 47.94079666 14.3963123 71.05374687 16 96 C22.6 96 29.2 96 36 96 C35.96519531 94.33195312 35.93039062 92.66390625 35.89453125 90.9453125 C35.38158894 56.37196996 43.99162736 27.6749126 65 0 C69.46363981 0.49771559 71.48580581 1.97723106 74.6875 5.0625 C79.58722182 9.66013371 84.70634778 13.86644603 90 18 C89.3898792 22.0543511 87.14018805 24.95311459 84.875 28.25 C81.56293943 33.26741097 78.65231503 38.32625437 76.1875 43.8125 C75.66542969 44.97394531 75.14335937 46.13539062 74.60546875 47.33203125 C69.52936631 61.00816846 68.39749527 74.36619136 68.390625 88.81640625 C68.37559887 90.65300419 68.35886267 92.48958885 68.34051514 94.32615662 C68.29732608 99.09842644 68.27695173 103.87051423 68.26177979 108.64294434 C68.24203145 113.53746088 68.20008313 118.43178571 68.16015625 123.32617188 C68.08538079 132.88405472 68.03477299 142.44189359 68 152 C69.2794751 151.98622314 70.5589502 151.97244629 71.87719727 151.95825195 C73.58609819 151.94710567 75.29500135 151.93630026 77.00390625 151.92578125 C78.2634613 151.91085632 78.2634613 151.91085632 79.54846191 151.89562988 C99.21155849 151.80514821 117.31793226 159.14507401 131.62109375 172.59765625 C146.02342468 187.14188206 153.36891017 205.3412428 153.46438217 225.71103668 C153.45297528 227.98475939 153.42226961 230.25772701 153.390625 232.53125 C153.38313813 234.14505298 153.37745682 235.75886523 153.37347412 237.37268066 C153.35840965 241.56160871 153.31930124 245.74995644 153.2746582 249.93865967 C153.22597292 254.99578361 153.20807976 260.05310472 153.18484497 265.11039734 C153.14643203 272.74066494 153.06964807 280.36966659 153 288 C142.44 288 131.88 288 121 288 C121 280.41 121 272.82 121 265 C103.51 265 86.02 265 68 265 C68.07846897 281.45148613 68.07846897 281.45148613 68.18017578 297.90283203 C68.3644278 342.17105446 59.9937162 381.42752956 29.04296875 414.74609375 C26.96510514 416.96124172 26.96510514 416.96124172 25.22663879 419.41273499 C22.82278274 422.20591935 20.43131676 423.68753622 17.33081055 425.65014648 C13.86049409 428.45680843 11.79023648 430.54256632 10.99356079 434.92922974 C10.49146391 439.81538209 10.60459468 444.69397097 10.70703125 449.59765625 C10.70510712 451.40084455 10.69833208 453.20403358 10.68693542 455.00718689 C10.67001149 459.72808572 10.71851699 464.44607939 10.78112793 469.16650391 C10.83341451 473.99314543 10.82317734 478.81962183 10.81835938 483.64648438 C10.81806075 493.09878985 10.89273458 502.54830258 11 512 C0.77 512 -9.46 512 -20 512 C-20.33 491.87 -20.66 471.74 -21 451 C-25.95 452.98 -25.95 452.98 -31 455 C-31.66 455 -32.32 455 -33 455 C-33 338.51 -33 222.02 -33 102 C-19 98 -19 98 -15 98 C-15.495 97.01 -15.495 97.01 -16 96 C-20.59184742 64.31955626 -16.70275053 27.74929363 0 0 Z " fill="#EEE1DC" transform="translate(322,0)"/>
<path d="M0 0 C11.12594672 9.3757978 18.58508766 22.96366243 20.75 37.3125 C22.00060535 54.56400115 17.85581709 70.21980985 6.53173828 83.56884766 C4.98399726 85.3307167 3.4188476 87.07543504 1.84765625 88.81640625 C-0.67269746 91.612899 -2.98447717 94.50839974 -5.25024414 97.51293945 C-15.32905995 110.85447889 -26.62405292 122.10812258 -41.25 130.3125 C-42.62091797 131.13621094 -42.62091797 131.13621094 -44.01953125 131.9765625 C-64.48315456 143.39403474 -91.52383868 146.44807608 -114.1875 140.6875 C-116.56043401 139.95400087 -118.91651447 139.16319506 -121.25 138.3125 C-121.88389648 138.09287598 -122.51779297 137.87325195 -123.17089844 137.64697266 C-130.98271448 134.92151684 -138.03098389 131.54354468 -144.91015625 126.88671875 C-147.37161429 125.17017936 -147.37161429 125.17017936 -150.6875 123.5 C-156.41788497 120.33986123 -161.30593704 115.56650492 -166.25 111.3125 C-164.7215275 106.23371479 -161.5989772 102.97856131 -158.125 99.125 C-156.93605966 97.78122092 -155.74855626 96.43616908 -154.5625 95.08984375 C-153.98886719 94.43999512 -153.41523438 93.79014648 -152.82421875 93.12060547 C-150.20037223 90.10692567 -147.74145775 86.97007689 -145.26953125 83.83203125 C-142.83819207 80.79873576 -140.3314118 77.83563713 -137.8125 74.875 C-133.74019559 70.08593116 -129.72518137 65.25632723 -125.75390625 60.3828125 C-117.94334735 50.80543451 -110.09109042 41.26497043 -102.08691406 31.84863281 C-96.93578728 25.78107131 -91.88107561 19.6324552 -86.9375 13.39453125 C-64.96062586 -14.11368453 -29.19433129 -21.81750945 0 0 Z " fill="#E8D9D3" transform="translate(244.25,300.6875)"/>
<path d="M0 0 C25.89392456 0 46.49258068 2.60667604 65.62109375 20.59765625 C80.02342468 35.14188206 87.36891017 53.3412428 87.46438217 73.71103668 C87.45297528 75.98475939 87.42226961 78.25772701 87.390625 80.53125 C87.38313813 82.14505298 87.37745682 83.75886523 87.37347412 85.37268066 C87.35840965 89.56160871 87.31930124 93.74995644 87.2746582 97.93865967 C87.22597292 102.99578361 87.20807976 108.05310472 87.18484497 113.11039734 C87.14643203 120.74066494 87.06964807 128.36966659 87 136 C76.44 136 65.88 136 55 136 C55 128.41 55 120.82 55 113 C36.85 113 18.7 113 0 113 C0 75.71 0 38.42 0 0 Z " fill="#282525" transform="translate(388,152)"/>
<path d="M0 0 C4.46363981 0.49771559 6.48580581 1.97723106 9.6875 5.0625 C14.58722182 9.66013371 19.70634778 13.86644603 25 18 C24.3898792 22.0543511 22.14018805 24.95311459 19.875 28.25 C16.56293943 33.26741097 13.65231503 38.32625437 11.1875 43.8125 C10.66542969 44.97394531 10.14335937 46.13539062 9.60546875 47.33203125 C4.52936631 61.00816846 3.39749527 74.36619136 3.390625 88.81640625 C3.37559887 90.65300419 3.35886267 92.48958885 3.34051514 94.32615662 C3.29732608 99.09842644 3.27695173 103.87051423 3.26177979 108.64294434 C3.24203145 113.53746088 3.20008313 118.43178571 3.16015625 123.32617188 C3.08538079 132.88405472 3.03477299 142.44189359 3 152 C2.67 152 2.34 152 2 152 C2 133.85 2 115.7 2 97 C-8.23 97 -18.46 97 -29 97 C-29.56380323 59.78898682 -22.78352252 30.01336683 0 0 Z " fill="#FCCB02" transform="translate(387,0)"/>
<path d="M0 0 C5.96932934 0.96266512 10.88964186 3.68793101 16.25 6.375 C17.26835937 6.87 18.28671875 7.365 19.3359375 7.875 C20.78613281 8.59816406 20.78613281 8.59816406 22.265625 9.3359375 C23.59255371 9.99408447 23.59255371 9.99408447 24.94628906 10.66552734 C27 12 27 12 28 15 C27.44262695 16.95092773 27.44262695 16.95092773 26.48828125 19.18359375 C26.14418213 20.01834229 25.80008301 20.85309082 25.44555664 21.71313477 C25.07164795 22.61217529 24.69773926 23.51121582 24.3125 24.4375 C14.86327358 48.29161102 14.4609154 71.69060876 16 97 C0.655 97.495 0.655 97.495 -15 98 C-25.59434344 76.81131312 -14.94481829 37.82370309 -8.08203125 17.10205078 C-5.95812931 11.02427782 -3.319517 5.51491515 0 0 Z " fill="#FCCB02" transform="translate(322,0)"/>
<path d="M0 0 C4.41708455 0.30676679 8.83357429 0.62140049 13.25 0.9375 C14.50425781 1.02451172 15.75851562 1.11152344 17.05078125 1.20117188 C18.85869141 1.33168945 18.85869141 1.33168945 20.703125 1.46484375 C22.36843262 1.58267212 22.36843262 1.58267212 24.06738281 1.70288086 C26.49199427 1.94853122 28.66697714 2.32243059 31 3 C30.97679687 3.69480469 30.95359375 4.38960937 30.9296875 5.10546875 C30.5160609 28.41628211 34.82166844 49.62875291 44 71 C44.67166518 72.66465856 45.34034649 74.33054516 46 76 C45.50185791 76.27150879 45.00371582 76.54301758 44.49047852 76.82275391 C31.42688156 83.88876039 31.42688156 83.88876039 19 92 C4.49979317 63.97106421 -3.20677438 34.75529783 -1 3 C-0.67 2.01 -0.34 1.02 0 0 Z " fill="#FEE002" transform="translate(243,27)"/>
<path d="M0 0 C0 26.4 0 52.8 0 80 C-10.23 80 -20.46 80 -31 80 C-31 59.21 -31 38.42 -31 17 C-25.39 14.03 -19.78 11.06 -14 8 C-9.07511813 4.76993896 -9.07511813 4.76993896 -4.22265625 1.43359375 C-2 0 -2 0 0 0 Z " fill="#FC8C02" transform="translate(333,432)"/>
<path d="M0 0 C2.83493397 1.2356033 4.2021385 2.98260291 6.1953125 5.33984375 C7.38833984 6.70109375 7.38833984 6.70109375 8.60546875 8.08984375 C9.82556641 9.48203125 9.82556641 9.48203125 11.0703125 10.90234375 C21.27329072 22.25870212 33.87548443 30.38509795 47.0703125 37.90234375 C45.62465268 41.02043356 43.86224901 43.64297009 41.8203125 46.40234375 C37.89051973 51.92217845 34.94226479 57.77972018 32.0703125 63.90234375 C10.15432732 60.88226386 -11.88006148 35.11630794 -24.9296875 18.90234375 C-20.99318526 14.79105473 -16.7678172 11.24089056 -12.3046875 7.71484375 C-11.63695312 7.18181641 -10.96921875 6.64878906 -10.28125 6.09960938 C-2.4526567 -0.1241223 -2.4526567 -0.1241223 0 0 Z " fill="#FEE102" transform="translate(203.9296875,91.09765625)"/>
<path d="M0 0 C0 17.16 0 34.32 0 52 C-10.23 52 -20.46 52 -31 52 C-31 35.5 -31 19 -31 2 C-24.1628125 1.505 -24.1628125 1.505 -17.1875 1 C-15.03577271 0.84337891 -15.03577271 0.84337891 -12.84057617 0.68359375 C-11.71111572 0.60238281 -10.58165527 0.52117187 -9.41796875 0.4375 C-7.68196411 0.31181641 -7.68196411 0.31181641 -5.91088867 0.18359375 C-3.94355141 0.05951108 -1.97124641 0 0 0 Z " fill="#FCAD02" transform="translate(269,460)"/>
<path d="M0 0 C9.9 0 19.8 0 30 0 C30 9.9 30 19.8 30 30 C20.1 30 10.2 30 0 30 C0 20.1 0 10.2 0 0 Z " fill="#2B2828" transform="translate(299,188)"/>
</svg>
